<svg xmlns="http://www.w3.org/2000/svg" xml:space="preserve" width="128" height="128" viewBox="0 0 24 24"><path fill="#2196F3" d="M17.543 12.933a.748.748 0 0 0-.806.124l-4.159 3.703a.749.749 0 0 0-.244.667l.67 4.677c.04.281.253.498.522.588a.697.697 0 0 0 .222.035.806.806 0 0 0 .563-.234 12.47 12.47 0 0 0 3.674-8.875.747.747 0 0 0-.442-.685zM10.383 6.014a12.468 12.468 0 0 0-8.875 3.674l-.035.034a.749.749 0 0 0 .424 1.272l4.677.67a.75.75 0 0 0 .666-.243l3.703-4.159a.75.75 0 0 0-.56-1.248z"/><path fill="#ECEFF1" d="M11.878 19.151a.748.748 0 0 1-.53-.22l-6.279-6.279a.75.75 0 0 1-.029-1.03l4.706-5.271C13.079 2.45 18.49-.098 23.265.004a.75.75 0 0 1 .732.732c.11 4.748-2.445 10.185-6.359 13.529l-5.259 4.695a.75.75 0 0 1-.501.191z"/><path fill="#2196F3" d="M17.133 9.366a2.492 2.492 0 0 1-1.768-.731 2.505 2.505 0 0 1 0-3.536 2.503 2.503 0 0 1 3.536 0 2.505 2.505 0 0 1 0 3.536 2.491 2.491 0 0 1-1.768.731z"/><path fill="#FF9800" d="M.75 24a.75.75 0 0 1-.718-.966c.251-.841 1.56-5.089 2.582-6.11 1.193-1.192 3.271-1.192 4.462 0 .596.597.924 1.389.924 2.232 0 .843-.328 1.635-.924 2.231-1.021 1.021-5.27 2.33-6.11 2.582A.762.762 0 0 1 .75 24z"/></svg>